<svg xmlns="http://www.w3.org/2000/svg" viewBox="0 0 24 24" fill="#3B82F6">
  <rect x="2" y="2" width="20" height="20" rx="3" ry="3"/>
  <rect x="4" y="4" width="16" height="6" rx="1" ry="1" fill="#FFFFFF"/>
  <rect x="6" y="12" width="2" height="2" rx="0.5" ry="0.5" fill="#FFFFFF"/>
  <rect x="10" y="12" width="2" height="2" rx="0.5" ry="0.5" fill="#FFFFFF"/>
  <rect x="14" y="12" width="2" height="2" rx="0.5" ry="0.5" fill="#FFFFFF"/>
  <rect x="18" y="12" width="2" height="2" rx="0.5" ry="0.5" fill="#FFFFFF"/>
  <rect x="6" y="16" width="2" height="2" rx="0.5" ry="0.5" fill="#FFFFFF"/>
  <rect x="10" y="16" width="2" height="2" rx="0.5" ry="0.5" fill="#FFFFFF"/>
  <rect x="14" y="16" width="2" height="2" rx="0.5" ry="0.5" fill="#FFFFFF"/>
  <rect x="18" y="16" width="2" height="2" rx="0.5" ry="0.5" fill="#FFFFFF"/>
</svg>
